<svg width="26" height="26" viewBox="0 0 26 26" fill="none" xmlns="http://www.w3.org/2000/svg">
<path d="M12.9907 0C5.80871 0 0 5.85 0 13.0743C0 19.5929 4.75089 25.0157 10.9679 26V16.8629H7.66453V13.0743H10.9679V10.1957C10.9679 6.90857 12.9165 5.10714 15.8672 5.10714C17.2962 5.10714 18.7809 5.36714 18.7809 5.36714V8.58H17.1478C15.5332 8.58 15.0321 9.58286 15.0321 10.6229V13.0743H18.6324L18.0571 16.8629H15.0321V26C21.2491 25.0157 26 19.6114 26 13.0743C26 5.85 20.1913 0 13.0093 0H12.9907Z" fill="#34373F"/>
</svg>
