<svg width="38" height="15" viewBox="0 0 38 15" fill="none" xmlns="http://www.w3.org/2000/svg">
<path fill-rule="evenodd" clip-rule="evenodd" d="M8.53931 3.40377C7.8876 2.79115 7.01916 2.45554 6.12021 2.46889C4.47438 2.46889 3.07868 3.5643 2.57844 5.04311C2.31495 5.81745 2.31495 6.656 2.57844 7.43034C3.07868 8.90915 4.47438 10.0064 6.12021 10.0064C6.97176 10.0064 7.70112 9.78925 8.26628 9.40964C8.59481 9.19404 8.87582 8.9149 9.09239 8.58902C9.30896 8.26314 9.4566 7.89727 9.52642 7.51344H6.12021V5.1111H12.0658C12.1396 5.53038 12.1759 5.95343 12.1746 6.38026C12.1746 8.27834 11.4892 9.88368 10.2997 10.9696C9.25339 11.9215 7.82141 12.4749 6.1183 12.4749C4.47887 12.426 2.92315 11.7474 1.78098 10.5831C0.638807 9.4187 0 7.86008 0 6.23767C0 4.61526 0.638807 3.05664 1.78098 1.89226C2.92315 0.727892 4.47887 0.0493282 6.1183 0.000445903C7.68394 -0.0184405 9.19802 0.563261 10.3379 1.62467L8.53931 3.40377ZM17.8739 7.32647V11.7232H16.463V0.865442H20.2033C20.6496 0.856264 21.0934 0.934657 21.5089 1.09609C21.9245 1.25753 22.3036 1.4988 22.6243 1.80598C22.9485 2.09431 23.2065 2.44793 23.381 2.84307C23.5556 3.23821 23.6426 3.66573 23.6362 4.0969C23.6445 4.53028 23.5584 4.96035 23.3838 5.35792C23.2092 5.75548 22.9502 6.11124 22.6243 6.40104C21.9713 7.01799 21.1643 7.32647 20.2033 7.32647H17.8739ZM17.8739 2.2026V5.99309H20.2377C20.4966 6.00011 20.7542 5.95388 20.9941 5.85733C21.234 5.76077 21.451 5.616 21.6315 5.43217C21.8107 5.25969 21.9532 5.05341 22.0505 4.82552C22.1478 4.59764 22.198 4.35277 22.198 4.1054C22.198 3.85802 22.1478 3.61316 22.0505 3.38527C21.9532 3.15739 21.8107 2.95111 21.6315 2.77863C21.4539 2.59017 21.2377 2.44131 20.9973 2.34198C20.757 2.24266 20.498 2.19514 20.2377 2.2026H17.8739ZM26.8859 4.05346C27.9284 4.05346 28.7513 4.32857 29.3546 4.8788C29.9567 5.43028 30.2577 6.18573 30.2577 7.14516V11.7232H28.9079V10.692H28.8468C28.2638 11.5419 27.4873 11.9668 26.5174 11.9668C25.69 11.9668 24.9982 11.7238 24.442 11.2378C24.1746 11.0153 23.9607 10.7366 23.8161 10.4219C23.6714 10.1073 23.5995 9.76468 23.6057 9.41908C23.6057 8.65103 23.8991 8.04037 24.4859 7.5871C25.074 7.13131 25.858 6.90341 26.8382 6.90341C27.677 6.90341 28.3669 7.05451 28.9079 7.35669V7.0394C28.9097 6.80365 28.8583 6.57047 28.7576 6.3568C28.6569 6.14314 28.5093 5.95437 28.3255 5.80423C27.9524 5.47154 27.4665 5.28955 26.9642 5.2943C26.1775 5.2943 25.5538 5.62355 25.093 6.28205L23.852 5.50771C24.5355 4.53821 25.5468 4.05346 26.8859 4.05346ZM25.0606 9.4493C25.0596 9.62693 25.1015 9.80223 25.1829 9.96058C25.2642 10.1189 25.3827 10.2558 25.5284 10.3596C25.8404 10.602 26.2276 10.7301 26.6243 10.7222C27.22 10.7222 27.789 10.488 28.209 10.0725C28.6787 9.63816 28.9129 9.1276 28.9117 8.54086C28.4725 8.19335 27.8596 8.02023 27.073 8.02149C26.5002 8.02149 26.0229 8.1581 25.641 8.43132C25.2541 8.7058 25.0606 9.04576 25.0606 9.45119M33.2897 15L38 4.29521H36.4649L34.2883 9.63249H34.2578L32.02 4.29521H30.4869L33.5838 11.2529L31.8348 14.9981L33.2897 15Z" fill="#34373F"/>
</svg>
