<svg width="26" height="26" viewBox="0 0 26 26" fill="none" xmlns="http://www.w3.org/2000/svg">
<path d="M14.3364 0C15.7988 0.00389991 16.5411 0.0116997 17.182 0.0298993L17.4342 0.038999C17.7253 0.0493988 18.0126 0.0623984 18.3597 0.077998C19.7428 0.142996 20.6866 0.361391 21.5147 0.682484C22.3726 1.01268 23.0954 1.45986 23.8181 2.18135C24.4794 2.83098 24.9909 3.61713 25.317 4.48489C25.638 5.31297 25.8564 6.25675 25.9214 7.64121C25.937 7.98701 25.95 8.2743 25.9604 8.56679L25.9682 8.81899C25.9877 9.45857 25.9955 10.2009 25.9981 11.6633L25.9994 12.6331V14.3361C26.0026 15.2843 25.9926 16.2325 25.9695 17.1804L25.9617 17.4326C25.9513 17.7251 25.9383 18.0124 25.9227 18.3582C25.8577 19.7426 25.6367 20.6851 25.317 21.5145C24.9909 22.3822 24.4794 23.1684 23.8181 23.818C23.1685 24.4793 22.3824 24.9908 21.5147 25.3169C20.6866 25.638 19.7428 25.8564 18.3597 25.9214L17.4342 25.9604L17.182 25.9682C16.5411 25.9864 15.7988 25.9955 14.3364 25.9981L13.3667 25.9994H11.665C10.7164 26.0027 9.76783 25.9927 8.8195 25.9695L8.56731 25.9617C8.25872 25.95 7.95019 25.9366 7.64175 25.9214C6.25862 25.8564 5.31487 25.638 4.48551 25.3169C3.61824 24.9907 2.83257 24.4792 2.18333 23.818C1.52159 23.1685 1.00963 22.3824 0.683205 21.5145C0.362121 20.6864 0.143732 19.7426 0.0787354 18.3582L0.0397374 17.4326L0.0332379 17.1804C0.00927495 16.2325 -0.001559 15.2843 0.000739399 14.3361V11.6633C-0.00285868 10.7151 0.00667518 9.76692 0.0293381 8.81899L0.0384376 8.56679C0.048837 8.2743 0.0618363 7.98701 0.0774355 7.64121C0.142432 6.25675 0.360821 5.31427 0.681905 4.48489C1.00909 3.61677 1.52195 2.8306 2.18463 2.18135C2.8335 1.52038 3.6187 1.00887 4.48551 0.682484C5.31487 0.361391 6.25732 0.142996 7.64175 0.077998C7.98754 0.0623984 8.27612 0.0493988 8.56731 0.038999L8.8195 0.0311992C9.7674 0.00810232 10.7156 -0.00186506 11.6638 0.00129987L14.3364 0ZM13.0001 6.49984C11.2763 6.49984 9.62305 7.18465 8.40412 8.4036C7.1852 9.62256 6.50041 11.2758 6.50041 12.9997C6.50041 14.7235 7.1852 16.3768 8.40412 17.5958C9.62305 18.8147 11.2763 19.4995 13.0001 19.4995C14.7239 19.4995 16.3771 18.8147 17.596 17.5958C18.815 16.3768 19.4998 14.7235 19.4998 12.9997C19.4998 11.2758 18.815 9.62256 17.596 8.4036C16.3771 7.18465 14.7239 6.49984 13.0001 6.49984ZM13.0001 9.09978C13.5122 9.09969 14.0193 9.20048 14.4925 9.39639C14.9657 9.5923 15.3957 9.8795 15.7579 10.2416C16.12 10.6037 16.4074 11.0335 16.6034 11.5067C16.7995 11.9798 16.9004 12.4869 16.9005 12.999C16.9006 13.5112 16.7998 14.0183 16.6039 14.4915C16.408 14.9647 16.1208 15.3947 15.7588 15.7569C15.3967 16.1191 14.9668 16.4064 14.4937 16.6025C14.0206 16.7985 13.5135 16.8995 13.0014 16.8996C11.9671 16.8996 10.9752 16.4887 10.2438 15.7573C9.51245 15.026 9.10158 14.034 9.10158 12.9997C9.10158 11.9654 9.51245 10.9734 10.2438 10.242C10.9752 9.51066 11.9671 9.09978 13.0014 9.09978M19.826 4.54989C19.3951 4.54989 18.9818 4.72109 18.677 5.02583C18.3723 5.33057 18.2011 5.74388 18.2011 6.17485C18.2011 6.60582 18.3723 7.01913 18.677 7.32387C18.9818 7.62861 19.3951 7.79981 19.826 7.79981C20.257 7.79981 20.6703 7.62861 20.975 7.32387C21.2798 7.01913 21.451 6.60582 21.451 6.17485C21.451 5.74388 21.2798 5.33057 20.975 5.02583C20.6703 4.72109 20.257 4.54989 19.826 4.54989Z" fill="#34373F"/>
</svg>
