<svg width="171" height="42" viewBox="0 0 171 42" fill="none" xmlns="http://www.w3.org/2000/svg">
<path fill-rule="evenodd" clip-rule="evenodd" d="M19.4646 0.00582023C22.2644 -0.0408034 25.2451 0.184077 27.223 0.993135C27.56 1.7638 27.3545 3.33803 27.3545 4.35004V9.74742C27.3545 10.6415 27.4394 11.7303 27.2887 12.5119H27.0915C26.7354 12.1362 26.3244 12.0594 25.8423 11.7879C25.0916 11.3655 24.2122 10.9898 23.2781 10.7347H22.6863C20.0043 10.1286 17.221 11.0309 15.5855 11.9853C13.3254 13.3045 11.5775 15.6576 10.7858 18.4359C10.7639 18.765 10.6816 19.0283 10.6597 19.3574C10.3967 20.4791 10.4735 22.5003 10.7858 23.5699C10.9721 24.2117 11.2132 24.9824 11.5091 25.6104C12.7364 28.2186 15.0157 30.0314 17.8209 31.0736C20.1934 31.9567 23.2753 31.4521 25.1848 30.6129C28.0558 29.3485 30.0858 27.1929 31.1022 24.0965C31.6665 22.3769 31.4309 19.7194 31.4309 17.3827C31.4309 14.5222 31.4967 11.5904 31.4967 8.82591C31.5186 6.89515 31.5405 4.96438 31.5624 3.03361C31.7542 3.03087 31.6528 2.97053 31.7596 3.03361C35.3073 5.11796 38.0907 8.3679 39.9782 12.117C40.5097 13.1756 40.8576 14.3906 41.2275 15.5397C41.2713 15.8249 41.3151 16.1102 41.359 16.3954C41.8466 17.8051 41.8849 19.4506 41.8849 21.3978V23.3725C41.5699 24.5079 41.474 25.871 41.096 26.9927C39.5016 31.7126 36.9428 35.2835 33.2719 37.9191C31.6254 39.1011 29.8529 40.0445 27.8147 40.881C27.1298 41.1608 26.5354 41.1635 25.7765 41.4076C24.93 41.6791 21.1248 42 20.0783 42L17.8209 41.8072L15.6512 41.3418C13.8322 40.7521 11.9803 40.1021 10.4571 39.1697C5.39443 36.0706 2.11521 31.7675 0.529024 25.1497C0.208499 23.814 -0.0870689 21.8111 0.0237312 19.9588V18.4447C0.0237312 16.9306 0.687916 15.5315 1.18651 14.2233C2.26315 11.3984 3.74249 9.24004 5.39443 7.04873C5.86836 6.42068 6.58064 5.92702 7.16964 5.40319C9.08457 3.7028 11.2187 2.37265 13.8103 1.32225C14.9554 0.858753 16.2347 0.631118 17.4922 0.334921C18.0647 0.200535 19.1222 0.378809 19.4646 0.00582023ZM58.1249 4.87661C59.2152 4.86564 59.8891 5.20846 60.2946 5.86394C60.6507 6.43988 60.4918 7.74534 60.4918 8.62845V15.2764C60.4918 17.1551 60.7658 19.5768 60.2946 21.1345C59.4398 23.9566 57.555 25.6817 54.8374 26.6636C53.4129 27.1792 51.0459 27.1709 49.6433 26.5977C47.1448 25.5748 45.3368 23.6385 44.5806 20.8713C44.4382 20.3474 44.3697 19.3464 44.4491 18.8966C44.5916 18.093 44.4437 17.4622 44.6464 16.7903C45.3751 14.3851 46.9092 12.7944 48.9858 11.7221C49.709 11.3491 51.5582 10.6058 52.865 10.9322C54.043 11.2257 55.0648 12.7779 54.18 14.0916C53.4786 15.1338 52.5499 14.6648 51.287 15.079C49.8762 15.5425 48.816 16.7135 48.4598 18.2384C48.3037 18.9048 48.5091 19.8071 48.6571 20.213C49.4625 22.4153 52.213 24.0252 54.7717 22.3193C55.4593 21.8613 56.073 21.0084 56.3497 20.1472C56.6373 19.2504 56.4812 17.8298 56.4812 16.7245V9.81323C56.4812 8.86978 56.2675 7.01307 56.5469 6.25886C56.7085 5.82554 57.1551 5.29897 57.5331 5.07408C57.7304 5.00826 57.9276 4.94243 58.1249 4.87661ZM129.659 4.87661C130.64 4.8629 131.3 5.11248 131.698 5.66647C132.193 6.35486 132.092 7.63838 132.092 8.82591V15.803C132.092 17.4897 132.289 19.4643 131.895 20.8713C131.057 23.8661 129.128 25.8408 126.175 26.7294C125.194 27.0256 123.608 27.2313 122.427 26.9269C121.907 26.7925 121.339 26.6745 120.849 26.4661C118.367 25.4075 116.775 23.3176 116.049 20.4763C115.86 19.7331 115.893 18.5648 116.049 17.9093C116.189 17.3251 116.126 16.9028 116.312 16.3954C117.159 14.0999 118.759 12.4598 120.981 11.5246C121.63 11.2503 123.35 10.6223 124.465 10.9322C125.599 11.2476 126.588 12.7999 125.715 14.0916C124.969 15.1914 123.86 14.6319 122.624 15.1448C121.26 15.7125 120.37 16.8013 119.994 18.37C119.783 19.2504 120.14 20.1966 120.389 20.6738C121.35 22.5278 123.967 23.9539 126.306 22.3193C126.964 21.8613 127.608 21.0386 127.884 20.213C128.172 19.3464 128.016 17.934 128.016 16.8562V9.94487C128.016 8.79299 127.769 7.03775 128.147 6.12722C128.498 5.27702 129.007 5.33188 129.659 4.87661ZM88.1063 10.8664C91.5553 10.7786 93.7524 11.7056 95.6674 13.1043C96.4673 13.6885 97.4316 14.7361 96.5221 16.0005C96.1632 16.4969 95.1222 17.092 94.1552 16.7245C93.5333 16.4886 93.0676 15.8798 92.5114 15.5397C91.7362 15.0653 90.6897 14.9172 89.6842 14.684C88.3501 14.3741 85.5448 14.865 85.2791 15.6055C84.9284 16.1924 85.5886 16.5051 85.9366 16.6587C86.5721 16.9412 87.4406 17.0536 88.3693 17.0536H89.6842C90.3417 17.1414 90.9992 17.2291 91.6567 17.3169C93.3936 17.8051 95.0565 18.4606 95.9961 19.7523C96.4207 20.3392 97.1412 21.2744 96.8509 22.5168C95.8044 27.0119 88.2734 28.1583 83.8326 25.9395C82.893 25.4706 80.5096 24.3735 80.7424 22.9117C80.9041 21.8997 81.7889 20.7094 83.3066 21.1345C84.0518 21.343 84.5367 22.0122 85.1476 22.3852C86.227 23.0434 88.3254 23.4273 89.6842 23.175C90.7198 22.983 91.9964 23.1887 92.3142 22.3193C92.3964 22.1987 92.3854 21.9436 92.3799 21.7269C91.8512 21.3348 91.5882 21.1263 90.802 20.9371C89.6623 20.8932 88.5227 20.8493 87.383 20.8054C85.6873 20.4297 84.2326 20.2021 82.9779 19.4232C81.641 18.5949 80.0548 16.6751 81.0054 14.4207C81.4958 13.2579 82.8108 12.287 83.9641 11.7879C84.8106 11.4204 85.7503 11.2284 86.7255 10.998C87.1255 10.902 87.783 11.0638 88.1063 10.8664ZM146.425 10.8664C149.924 10.7786 152.124 11.7358 154.052 13.1701C154.921 13.8174 155.671 14.8294 154.775 16.0663C154.436 16.5353 153.376 17.0646 152.474 16.7245C151.839 16.4859 151.389 15.8825 150.831 15.5397C150.036 15.0543 148.97 14.9226 147.938 14.684C146.899 14.4427 144.447 14.7937 143.927 15.1448C143.73 15.2792 143.568 15.4903 143.532 15.803C143.513 15.8496 143.527 15.9922 143.532 16.1979L143.927 16.5929C144.245 16.8068 144.85 16.8891 145.242 16.9878C146.403 17.0317 147.565 17.0756 148.727 17.1194C151.195 17.6871 153.233 18.1589 154.447 19.9498C154.885 20.5998 155.427 21.6502 155.104 22.8459C154.992 23.2573 154.803 23.7592 154.578 24.0965C152.535 27.1682 146.212 27.7386 142.283 26.0053C141.182 25.5199 138.516 24.2748 139.127 22.451C139.377 21.7077 140.324 20.7616 141.626 21.1345C142.333 21.3375 142.765 21.9656 143.335 22.3193C144.242 22.8843 145.623 23.0132 146.688 23.2408C147.696 23.4548 150.332 23.0297 150.568 22.3852C151.28 21.524 149.625 21.0715 149.055 20.9371C147.938 20.8932 146.82 20.8493 145.702 20.8054C143.113 20.2405 140.815 19.7304 139.587 17.8435C139.357 17.4869 139.324 17.1222 139.193 16.6587C138.319 13.5623 141.637 11.936 143.73 11.2613C144.321 11.1516 144.913 11.0419 145.505 10.9322C145.812 10.8664 146.209 10.998 146.425 10.8664ZM69.1706 10.9322C73.6114 10.8719 76.1647 12.7368 77.455 15.803C77.9262 16.922 78.57 19.1709 77.6522 20.3447C77.0879 21.066 75.8606 21.0029 74.562 21.0029C72.1978 21.0029 68.9131 21.5048 68.1844 19.8181C68.0009 19.393 68.042 18.765 68.1844 18.37C68.8501 16.5106 71.0828 16.9494 73.5101 16.9878V16.8562C72.6498 15.9977 72.4444 15.3916 71.0116 15.0131C67.8831 14.1876 65.0641 17.5857 66.2777 20.4763C66.8037 21.7297 67.9214 22.6375 69.3679 22.9776H70.8144C72.48 22.9776 76.2633 22.632 77.2577 23.3067C78.6029 24.2172 78.2659 26.3537 76.8632 26.9269C75.9811 27.2861 73.1621 27.0585 71.9321 27.0585C70.6171 27.0585 69.2117 27.1682 68.1187 26.861C65.1846 26.0383 63.2067 24.102 62.3328 21.2004C61.9684 19.9936 61.8479 18.0272 62.267 16.7245C63.0478 14.2973 64.7491 12.4077 67.0009 11.4588C67.5489 11.3052 68.0968 11.1516 68.6447 10.998C68.8474 10.9487 69.0419 11.0145 69.1706 10.9322ZM105.398 10.9322C106.623 10.913 107.823 10.8911 108.751 11.1955C111.858 12.2157 114.288 14.8513 114.472 18.5675V23.3067C114.472 24.0225 114.603 25.0125 114.406 25.6104C114.255 26.0629 113.866 26.5676 113.485 26.7952C112.146 27.5933 110.727 26.4908 110.461 25.4788V23.0434C110.461 19.3985 110.798 17.1057 108.554 15.6055C107.979 15.2216 106.902 14.6621 105.727 14.9473C104.283 15.2984 103.168 16.1924 102.637 17.4485C101.829 19.3601 102.886 21.439 104.017 22.2535C105.171 23.0845 107.294 22.7143 108.094 23.8332C108.99 25.0838 108.017 26.6828 106.91 26.9927C105.702 27.33 103.664 26.5977 103.031 26.2686C100.914 25.1689 99.4178 23.6796 98.6261 21.2662C98.4754 20.8027 98.5466 20.405 98.4288 19.8839C98.2069 18.9021 98.3603 17.4705 98.6261 16.6587C99.3822 14.3467 101.031 12.4571 103.163 11.5246C103.645 11.371 104.127 11.2174 104.609 11.0638C104.88 10.9898 105.193 11.0638 105.398 10.9322ZM135.051 10.9322C136.193 10.9185 136.845 11.1324 137.286 11.7879C137.744 12.468 137.615 13.8283 137.615 14.9473V22.0561C137.615 24.3269 137.889 26.5017 136.103 26.9927C135.689 27.1051 135.089 26.9515 134.854 26.861C133.361 26.2878 133.539 24.7657 133.539 22.7143V15.4081C133.539 14.4015 133.333 12.8931 133.67 12.117C133.958 11.456 134.522 11.3491 135.051 10.9322ZM163.849 10.9322C167.196 10.8581 168.268 11.648 170.095 13.0385C170.813 13.5843 171.377 14.8513 170.687 15.8688C170.254 16.5106 168.985 17.0536 167.991 16.527C167.383 16.2062 166.961 15.526 166.216 15.2106C163.443 14.0395 161.175 16.2747 160.693 18.37C160.564 18.9268 160.676 19.8071 160.824 20.213C161.35 21.6556 163.235 23.5508 165.492 22.9776C166.103 22.8212 166.747 22.525 167.202 22.1877C167.561 21.9217 167.794 21.5185 168.254 21.332C168.829 21.0962 169.662 21.258 170.095 21.5295C170.925 22.0478 171.303 23.5425 170.621 24.4915C169.692 25.7832 167.717 26.5703 165.887 26.9927C164.525 27.3053 162.657 26.8528 161.745 26.4661C159.287 25.4212 157.759 23.7702 156.945 21.0687C156.737 20.3749 156.455 18.9844 156.682 17.9751C156.814 17.3909 156.871 16.7547 157.077 16.1979C157.811 14.2151 159.46 12.4187 161.35 11.5904C161.86 11.3655 162.443 11.2119 162.994 11.0638C163.273 10.9898 163.635 11.0638 163.849 10.9322ZM18.8072 15.803C19.766 15.8304 20.2071 16.3872 20.7796 16.7903C21.8206 17.5253 22.7987 18.3015 23.8041 19.0283C24.3355 19.4122 25.0971 19.7934 25.4478 20.3447C25.6916 20.7314 25.5409 21.4006 25.4478 21.7928C24.6834 22.2947 24.0205 23.0379 23.2781 23.5699C22.3987 24.2007 21.5467 24.7355 20.6481 25.3471C20.2591 25.6104 19.3605 26.6745 18.4784 26.137C16.9032 25.6378 17.4264 21.4801 17.4264 19.3574C17.4264 18.6388 17.2977 17.657 17.4922 17.0536C17.6675 16.5133 18.0045 16.2912 18.3469 15.9346C18.5688 15.9264 18.6866 15.9017 18.8072 15.803ZM107.962 35.2204C107.962 36.5971 106.625 37.7161 105.069 37.2608C104.108 36.9811 103.478 36.279 103.228 35.2862C102.36 31.8059 107.349 30.6046 107.962 33.7723H106.845C106.73 33.2704 106.428 33.2046 106.121 32.9166C105.853 32.9057 105.428 32.8755 105.267 32.9824C104.113 33.2649 103.998 35.8292 105.135 36.2077C105.721 36.652 106.573 36.1364 106.779 35.7469C106.85 35.6098 106.795 35.3027 106.91 35.2204H107.962ZM77.455 37.195C77.3728 36.4381 76.9756 35.6811 76.7318 35.0229C76.3647 34.0274 76.2112 33.0044 75.8113 32.0609H76.9947C77.3673 33.2457 77.7399 34.4305 78.1125 35.6153H78.1782C78.2303 35.1299 79.0658 32.4092 79.296 32.1268C79.5151 31.9841 80.1425 32.0527 80.4794 32.0609V32.1268C80.2 32.5107 80.189 33.0044 80.0192 33.509C79.7644 34.2714 79.4439 35.1244 79.1645 35.8786C79.033 36.3174 78.9015 36.7562 78.77 37.195H77.455ZM80.8739 32.0609H82.0574V37.1292C81.7697 37.2279 81.2629 37.2005 80.8739 37.195V32.0609ZM83.0436 32.0609H84.1613C84.5586 32.8974 85.1887 33.6653 85.6736 34.4305C85.879 34.7569 85.9777 35.2478 86.3311 35.4178V32.0609H87.383V37.195H86.1996C86.0872 36.8275 85.7914 36.567 85.6078 36.2735C85.101 35.4727 84.5887 34.6691 84.1613 33.8381H84.0956V37.195H83.0436V32.0609ZM90.802 37.195H89.6842V35.1546C89.6267 34.9845 89.3829 34.7788 89.2897 34.628C88.9637 34.1014 88.761 33.5748 88.435 33.0483C88.235 32.7246 87.9611 32.4778 87.8433 32.0609H89.0925C89.4651 32.7192 89.8377 33.3774 90.2102 34.0356L90.276 33.9698C90.6568 33.5748 90.9718 32.9166 91.2622 32.4559L91.3937 32.0609H92.7087V32.1268C92.4566 32.3297 92.4265 32.6314 92.2484 32.9166C91.8677 33.5337 91.054 34.5128 90.802 35.1546V37.195ZM93.1689 32.0609H94.2866V36.2077H96.7851V37.195H93.1689V32.0609ZM108.751 32.0609C110.68 32.0225 112.321 31.9265 113.025 33.1141C113.206 33.4158 113.329 34.074 113.288 34.3647C113.211 34.9159 113.332 35.3959 113.157 35.8128C112.532 37.3047 110.899 37.2307 108.751 37.195V32.0609ZM111.579 33.1799C112.496 33.7641 112.209 35.2588 111.71 36.0102C111.217 36.1419 110.603 36.2214 109.869 36.2077V33.0483C110.417 33.0345 111.231 32.9578 111.579 33.1799ZM99.941 33.8381C100.423 33.8217 100.675 33.8957 100.862 34.1672C101.36 34.7624 100.694 35.4206 100.073 35.4178C99.9958 35.3657 99.963 35.3657 99.8095 35.352C99.6013 35.0421 99.4233 34.9845 99.415 34.4305C99.489 34.34 99.5137 34.2413 99.5465 34.1014C99.6726 34.0328 99.8397 33.9396 99.941 33.8381Z" fill="black"/>
</svg>
