<svg width="23" height="15" viewBox="0 0 23 15" fill="none" xmlns="http://www.w3.org/2000/svg">
<path d="M10.8297 13.1934C10.8855 13.2403 10.9432 13.2864 11.0029 13.3317C9.84062 14.0947 8.47617 14.501 7.08104 14.4994C6.15113 14.5002 5.23019 14.3197 4.37088 13.9683C3.51158 13.6169 2.73078 13.1015 2.07312 12.4515C1.41546 11.8015 0.89386 11.0298 0.538137 10.1803C0.182413 9.33093 -0.000451615 8.42052 8.37556e-07 7.50118C-0.000120135 6.23499 0.347125 4.99247 1.00476 3.90595C1.66239 2.81942 2.60579 1.92957 3.73448 1.33116C4.86317 0.732744 6.1349 0.448176 7.41424 0.507756C8.69358 0.567336 9.93262 0.968834 10.9994 1.66949C10.9421 1.71824 10.8847 1.76246 10.8412 1.81234C10.0144 2.51782 9.35108 3.39111 8.89635 4.37278C8.44162 5.35446 8.20615 6.42146 8.20598 7.50118C8.20598 9.68352 9.16121 11.7582 10.8297 13.1934ZM15.8306 0.501796C14.4367 0.499117 13.0734 0.90551 11.9134 1.66949C11.9695 1.71824 12.0269 1.76246 12.0705 1.81234C13.747 3.24418 14.7068 5.31996 14.7068 7.50118C14.7068 9.68239 13.7493 11.7559 12.0831 13.1934C12.0257 13.2403 11.968 13.2864 11.9099 13.3317C13.0712 14.0949 14.435 14.5012 15.8294 14.4994C16.7667 14.5113 17.697 14.3391 18.5664 13.9927C19.4358 13.6463 20.2269 13.1327 20.894 12.4817C21.561 11.8307 22.0907 11.0552 22.4522 10.2002C22.8137 9.34528 22.9999 8.42785 23 7.50118C23.0001 6.57452 22.814 5.65706 22.4526 4.80203C22.0913 3.94701 21.5617 3.17144 20.8948 2.52031C20.2279 1.86919 19.4368 1.35548 18.5674 1.00897C17.6981 0.662471 16.7678 0.490079 15.8306 0.501796ZM11.4558 2.0028C10.6126 2.65621 9.93109 3.49096 9.46296 4.44367C8.99484 5.39638 8.75242 6.44201 8.75412 7.50118C8.7519 8.56092 8.99406 9.60722 9.46221 10.5606C9.93035 11.5139 10.6122 12.3492 11.4558 13.003C12.299 12.3487 12.9806 11.5134 13.4489 10.5602C13.9172 9.60695 14.1599 8.56087 14.1586 7.50118C14.1602 6.44192 13.9176 5.39623 13.4493 4.44351C12.981 3.49079 12.2992 2.6561 11.4558 2.0028Z" fill="#34373F"/>
</svg>
